<svg width="25" height="25" viewBox="0 0 25 25" fill="none" xmlns="http://www.w3.org/2000/svg">
<path d="M25 12.5761C25 15.6863 23.9919 18.4246 21.9758 20.7911C19.9597 23.1237 17.4563 24.5267 14.4657 25V16.2272H17.3891L17.9435 12.5761H14.4657V10.1927C14.4657 8.90805 15.1378 8.26572 16.4819 8.26572H18.0444V5.17241C17.1035 5.00338 16.1794 4.91886 15.2722 4.91886C14.2977 4.91886 13.4577 5.1048 12.752 5.47667C12.08 5.84855 11.5423 6.40636 11.1391 7.1501C10.7359 7.89385 10.5343 8.77282 10.5343 9.78702V12.5761H7.35887V16.2272H10.5343V25C7.54368 24.5267 5.04032 23.1237 3.02419 20.7911C1.00806 18.4246 0 15.6863 0 12.5761C0 9.09398 1.20968 6.1359 3.62903 3.70183C6.08199 1.23394 9.03898 0 12.5 0C15.961 0 18.9012 1.23394 21.3206 3.70183C23.7735 6.1359 25 9.09398 25 12.5761Z" fill="white"/>
</svg>
