<svg width="26" height="25" viewBox="0 0 26 25" fill="none" xmlns="http://www.w3.org/2000/svg">
<path fill-rule="evenodd" clip-rule="evenodd" d="M3.38379 0C1.72693 0 0.383789 1.34315 0.383789 3V22C0.383789 23.6569 1.72694 25 3.38379 25H22.3838C24.0406 25 25.3838 23.6569 25.3838 22V3C25.3838 1.34315 24.0406 0 22.3838 0H3.38379ZM7.97559 16C9.95929 16 11.5674 14.433 11.5674 12.5C11.5674 10.567 9.95929 9 7.97559 9C5.99189 9 4.38379 10.567 4.38379 12.5C4.38379 14.433 5.99189 16 7.97559 16ZM17.9756 16C19.9593 16 21.5674 14.433 21.5674 12.5C21.5674 10.567 19.9593 9 17.9756 9C15.9919 9 14.3838 10.567 14.3838 12.5C14.3838 14.433 15.9919 16 17.9756 16Z" fill="white"/>
</svg>
