<svg width="26" height="25" viewBox="0 0 26 25" fill="none" xmlns="http://www.w3.org/2000/svg">
<path d="M12.8965 2.25191C16.2369 2.25191 16.6322 2.26676 17.9457 2.32536C19.167 2.37928 19.8257 2.584 20.2656 2.75512C20.8469 2.98015 21.2665 3.25363 21.701 3.68808C22.1409 4.12799 22.4089 4.5429 22.6386 5.12424C22.8098 5.56415 23.0145 6.22754 23.0684 7.44413C23.127 8.76309 23.1418 9.15846 23.1418 12.4941C23.1418 15.8298 23.127 16.2299 23.0684 17.5441C23.0145 18.7654 22.8098 19.4241 22.6386 19.864C22.4136 20.4454 22.1409 20.865 21.7057 21.2994C21.2658 21.7393 20.8509 22.0073 20.2703 22.2371C19.8304 22.4082 19.1662 22.6129 17.9504 22.6668C16.6314 22.7254 16.2361 22.7403 12.9004 22.7403C9.56471 22.7403 9.16465 22.7254 7.85038 22.6668C6.6291 22.6129 5.9704 22.4082 5.53049 22.2371C4.94915 22.012 4.52955 21.7393 4.09433 21.3041C3.65442 20.8642 3.38641 20.4493 3.15668 19.8687C2.98556 19.4288 2.78084 18.7647 2.72693 17.5488C2.66832 16.2299 2.65348 15.8345 2.65348 12.4988C2.65348 9.16315 2.66832 8.76309 2.72693 7.44882C2.78084 6.22754 2.98556 5.56884 3.15668 5.12893C3.38172 4.54759 3.6552 4.12799 4.08964 3.69276C4.52955 3.25285 4.94446 2.98484 5.5258 2.75512C5.96571 2.584 6.6291 2.37928 7.8457 2.32536C9.15918 2.26676 9.55612 2.25191 12.8965 2.25191ZM12.8965 0.000781372C9.5022 0.000781372 9.07792 0.0156274 7.74412 0.0742303C6.41578 0.132833 5.50236 0.347711 4.71161 0.655571C3.88648 0.977496 3.18794 1.40256 2.49486 2.10111C1.79631 2.79497 1.37125 3.49273 1.04932 4.31317C0.74146 5.10939 0.526583 6.01735 0.46798 7.34568C0.409377 8.68417 0.394531 9.10845 0.394531 12.5027C0.394531 15.897 0.409377 16.3213 0.46798 17.6551C0.526583 18.9834 0.74146 19.8969 1.04932 20.6876C1.37203 21.5127 1.79631 22.2113 2.49486 22.9044C3.18794 23.5974 3.88648 24.028 4.70692 24.3452C5.50314 24.6531 6.4111 24.8679 7.73943 24.9266C9.07245 24.9852 9.49752 25 12.8918 25C16.2861 25 16.7111 24.9852 18.0442 24.9266C19.3725 24.8679 20.2859 24.6531 21.0767 24.3452C21.8971 24.028 22.5957 23.5982 23.2887 22.9044C23.9818 22.2105 24.4123 21.5127 24.7296 20.6923C25.0374 19.8961 25.2523 18.9881 25.3109 17.6598C25.3695 16.3268 25.3844 15.9017 25.3844 12.5074C25.3844 9.11314 25.3695 8.68886 25.3109 7.35506C25.2523 6.02672 25.0374 5.1133 24.7296 4.32255C24.4217 3.49195 23.9967 2.79419 23.2989 2.10033C22.6058 1.40725 21.9073 0.976715 21.0868 0.659478C20.2906 0.351617 19.3827 0.13674 18.0543 0.0781372C16.7166 0.0148461 16.2915 0 12.8973 0L12.8965 0.000781372Z" fill="white"/>
<path d="M12.8964 6.08067C9.35135 6.08067 6.47434 8.9569 6.47434 12.5028C6.47434 16.0486 9.35057 18.9249 12.8964 18.9249C16.4423 18.9249 19.3185 16.0486 19.3185 12.5028C19.3185 8.95769 16.4423 6.08067 12.8964 6.08067ZM12.8964 16.6683C10.5961 16.6683 8.73095 14.8031 8.73095 12.5028C8.73095 10.2024 10.5961 8.33728 12.8964 8.33728C15.1968 8.33728 17.0619 10.2024 17.0619 12.5028C17.0619 14.8031 15.1968 16.6683 12.8964 16.6683Z" fill="white"/>
<path d="M21.0717 5.82698C21.0717 6.65524 20.4005 7.32643 19.5723 7.32643C18.744 7.32643 18.0728 6.65524 18.0728 5.82698C18.0728 4.99873 18.744 4.32753 19.5723 4.32753C20.4005 4.32753 21.0717 4.99873 21.0717 5.82698Z" fill="white"/>
</svg>
