<svg width="25" height="25" viewBox="0 0 25 25" fill="none" xmlns="http://www.w3.org/2000/svg">
<path d="M5.74093 24.5H0.758789V8.48214H5.74093V24.5ZM3.27665 6.28571C2.49093 6.28571 1.81236 6 1.24093 5.42857C0.669503 4.85714 0.383789 4.17857 0.383789 3.39286C0.383789 2.60714 0.669503 1.92857 1.24093 1.35714C1.81236 0.785714 2.49093 0.5 3.27665 0.5C3.77665 0.5 4.24093 0.625 4.6695 0.875C5.13379 1.125 5.49093 1.48214 5.74093 1.94643C6.02665 2.375 6.1695 2.85714 6.1695 3.39286C6.1695 3.89286 6.02665 4.375 5.74093 4.83929C5.49093 5.26786 5.13379 5.625 4.6695 5.91071C4.24093 6.16071 3.77665 6.28571 3.27665 6.28571ZM24.3838 24.5H19.4016V16.6786C19.4016 16.0714 19.3838 15.5893 19.3481 15.2321C19.3124 14.8393 19.2231 14.4107 19.0802 13.9464C18.9374 13.4464 18.6695 13.0714 18.2766 12.8214C17.9195 12.5714 17.4374 12.4464 16.8302 12.4464C15.6516 12.4464 14.8481 12.8214 14.4195 13.5714C14.0266 14.3214 13.8302 15.3214 13.8302 16.5714V24.5H8.84807V8.48214H13.6695V10.6786H13.7231C14.0802 9.96429 14.6695 9.35714 15.4909 8.85714C16.3124 8.32143 17.2945 8.05357 18.4374 8.05357C19.6516 8.05357 20.6516 8.25 21.4374 8.64286C22.2588 9 22.8659 9.55357 23.2588 10.3036C23.6874 11.0179 23.9731 11.8036 24.1159 12.6607C24.2945 13.5179 24.3838 14.5357 24.3838 15.7143V24.5Z" fill="white"/>
</svg>
