<svg width="26" height="25" viewBox="0 0 26 25" fill="none" xmlns="http://www.w3.org/2000/svg">
<path d="M12.8853 0C5.9817 0 0.384766 5.59671 0.384766 12.5C0.384766 17.7953 3.68017 22.323 8.32954 24.144C8.22048 23.1553 8.12171 21.6337 8.37275 20.5545C8.60012 19.5792 9.83886 14.3416 9.83886 14.3416C9.83886 14.3416 9.46436 13.5926 9.46436 12.4856C9.46436 10.7479 10.4716 9.44959 11.7268 9.44959C12.7927 9.44959 13.3081 10.25 13.3081 11.2099C13.3081 12.2829 12.625 13.8858 12.2731 15.3714C11.9789 16.6152 12.8976 17.6307 14.124 17.6307C16.3463 17.6307 18.0532 15.2881 18.0532 11.9064C18.0532 8.91358 15.9029 6.82099 12.8318 6.82099C9.27505 6.82099 7.18751 9.48868 7.18751 12.2459C7.18751 13.32 7.60111 14.4722 8.11759 15.0988C8.21945 15.2222 8.23488 15.3313 8.20402 15.4578C8.10936 15.8529 7.89845 16.7016 7.85729 16.8755C7.80276 17.1039 7.67622 17.1533 7.43958 17.0422C5.87779 16.3158 4.90244 14.0329 4.90244 12.1996C4.90244 8.25617 7.76778 4.6358 13.162 4.6358C17.4986 4.6358 20.8681 7.72531 20.8681 11.8549C20.8681 16.1626 18.152 19.6296 14.3812 19.6296C13.1147 19.6296 11.9233 18.9712 11.5159 18.1944C11.5159 18.1944 10.8893 20.5813 10.737 21.1656C10.4551 22.251 9.69276 23.6121 9.18348 24.4424C10.3533 24.8045 11.5961 25 12.8842 25C19.7878 25 25.3848 19.4033 25.3848 12.5C25.3858 5.59671 19.7889 0 12.8853 0Z" fill="white"/>
</svg>
