<svg width="31" height="25" viewBox="0 0 31 25" fill="none" xmlns="http://www.w3.org/2000/svg">
<path d="M27.5058 6.25C27.5457 6.41026 27.5657 6.67067 27.5657 7.03125C27.5657 9.15465 27.1662 11.278 26.3672 13.4014C25.5682 15.4848 24.4296 17.4079 22.9514 19.1707C21.5132 20.8934 19.6356 22.2957 17.3184 23.3774C15.0013 24.4591 12.4445 25 9.64799 25C6.13237 25 2.91637 24.0585 0 22.1755C0.439453 22.2155 0.938832 22.2356 1.49814 22.2356C4.41451 22.2356 7.03125 21.3341 9.34837 19.5313C7.95011 19.5313 6.71165 19.1306 5.63299 18.3293C4.59428 17.488 3.87518 16.4463 3.47567 15.2043C3.87518 15.2444 4.25471 15.2644 4.61426 15.2644C5.17356 15.2644 5.73287 15.2043 6.29217 15.0841C5.33336 14.8838 4.47443 14.4832 3.71538 13.8822C2.95632 13.2813 2.35707 12.5601 1.91761 11.7188C1.47816 10.8373 1.25843 9.89583 1.25843 8.89423V8.77404C2.13734 9.29487 3.07617 9.57532 4.07493 9.61539C2.19727 8.33333 1.25843 6.57051 1.25843 4.32692C1.25843 3.20513 1.55806 2.14343 2.15732 1.14183C3.71538 3.10497 5.61301 4.66747 7.85023 5.82933C10.1274 6.99119 12.5444 7.63221 15.1012 7.7524C15.0213 7.27163 14.9814 6.79087 14.9814 6.3101C14.9814 4.58734 15.5806 3.10497 16.7791 1.86298C18.0176 0.620994 19.4957 0 21.2136 0C23.0513 0 24.5894 0.661058 25.8279 1.98317C27.2661 1.70272 28.6044 1.20192 29.8429 0.480769C29.3635 1.96314 28.4446 3.125 27.0863 3.96635C28.2848 3.80609 29.4833 3.46555 30.6818 2.94471C29.8029 4.22676 28.7442 5.32853 27.5058 6.25Z" fill="white"/>
</svg>
