<svg width="37" height="25" viewBox="0 0 37 25" fill="none" xmlns="http://www.w3.org/2000/svg">
<path fill-rule="evenodd" clip-rule="evenodd" d="M32.4931 0.746707C34.0307 1.15828 35.2389 2.36653 35.6505 3.90405C36.3942 6.68803 36.3942 12.5 36.3942 12.5C36.3942 12.5 36.3942 18.312 35.6475 21.096C35.236 22.6335 34.0277 23.8417 32.4902 24.2533C29.7062 25 18.5379 25 18.5379 25C18.5379 25 7.36967 25 4.58569 24.2533C3.04817 23.8417 1.83992 22.6335 1.42835 21.096C0.681641 18.312 0.681641 12.5 0.681641 12.5C0.681641 12.5 0.681641 6.68803 1.42835 3.90405C1.83992 2.36653 3.04817 1.15828 4.58569 0.746707C7.36967 0 18.5379 0 18.5379 0C18.5379 0 29.7062 0 32.4931 0.746707ZM24.247 12.4999L14.9661 17.8562V7.14361L24.247 12.4999Z" fill="white"/>
</svg>
